<?xml version="1.0" encoding="utf-8"?>
<!-- Generator: Adobe Illustrator 24.1.2, SVG Export Plug-In . SVG Version: 6.00 Build 0)  -->
<svg version="1.1" id="Слой_1" xmlns="http://www.w3.org/2000/svg" xmlns:xlink="http://www.w3.org/1999/xlink" x="0px" y="0px"
	 viewBox="0 0 97 85" style="enable-background:new 0 0 97 85;" xml:space="preserve">
<desc>Created with Sketch.</desc>
<g id="noun_892007_cc" transform="translate(32.000000, 17.000000)">
	<g id="Group" transform="translate(0.000000, 0.425213)">
		<path id="Shape" d="M20.4,0.2h-0.1L0.4,7.6C0.2,7.7,0,8,0,8.2v23.3c0,5,2.8,9.1,6.6,12.8c3.9,3.7,8.8,7.1,13.5,10.4
			c0.2,0.2,0.6,0.2,0.8,0c4.6-3.3,9.6-6.7,13.5-10.4S41,36.4,41,31.5V8.2c0-0.3-0.2-0.5-0.4-0.6L20.7,0.3
			C20.6,0.2,20.5,0.2,20.4,0.2L20.4,0.2z M20.5,1.6l19.2,7.1v22.9c0,4.5-2.5,8.3-6.2,11.9c-3.6,3.5-8.4,6.7-13,10
			c-4.5-3.2-9.3-6.5-13-10C3.8,39.9,1.3,36,1.3,31.6V8.7L20.5,1.6z"/>
	</g>
</g>
<g id="Group-44">
	<polygon id="Shape_3_" points="30.5,0 31.8,4.2 36,4.2 32.6,6.8 33.9,11 30.5,8.4 27.1,11 28.4,6.8 25,4.2 29.2,4.2 	"/>
	<polygon id="Shape_4_" points="88.8,7 91.9,11.3 96.8,9.5 93.9,13.9 97,18.2 92,16.6 89.1,21 89,15.6 84,14.1 88.9,12.4 	"/>
	<polygon id="Shape_5_" points="11.2,48 13.2,51.6 17,50.7 14.4,53.9 16.4,57.5 12.8,55.8 10.2,59 10.6,54.8 7,53.1 10.8,52.2 	"/>
	<polygon id="Shape_6_" points="85.5,56 86.8,59.8 91,59.8 87.6,62.2 88.9,66 85.5,63.6 82.1,66 83.4,62.2 80,59.8 84.2,59.8 	"/>
	<polygon id="Shape_7_" points="31,77 31.9,79.7 35,79.7 32.5,81.3 33.5,84 31,82.3 28.5,84 29.5,81.3 27,79.7 30.1,79.7 	"/>
	<polygon id="Shape_8_" points="3.5,14 4.3,16.3 7,16.3 4.8,17.7 5.7,20 3.5,18.6 1.3,20 2.2,17.7 0,16.3 2.7,16.3 	"/>
	<circle id="Oval" cx="78" cy="83" r="2"/>
	<circle id="Oval_1_" cx="69" cy="7" r="2"/>
	<circle id="Oval_2_" cx="49" cy="4" r="2"/>
	<circle id="Oval_3_" cx="12" cy="32" r="2"/>
	<circle id="Oval_4_" cx="91" cy="40" r="2"/>
</g>
<g id="_x30_1_1_">
	<g>
		<path d="M53.2,34.5c-0.2-0.2-0.6-0.2-0.8,0c-0.2,0.2-5.6,5.1-5.6,9.7c0,3,2.7,5.5,6,5.5c3.3,0,6-2.5,6-5.5
			C58.8,39.6,53.4,34.7,53.2,34.5z M52.8,49.1c-2.6,0-5.5-2.5-5.5-4.9c0-3.4,4.2-8,5.5-9.2c1.2,1.2,5.4,5.7,5.4,9.1
			C58.2,46.5,55.4,49.1,52.8,49.1z"/>
	</g>
</g>
<path d="M49,34.5"/>
</svg>
