<?xml version="1.0" encoding="UTF-8"?>
<svg width="154px" height="23px" viewBox="0 0 154 23" version="1.1" xmlns="http://www.w3.org/2000/svg" xmlns:xlink="http://www.w3.org/1999/xlink">
    <!-- Generator: Sketch 47.1 (45422) - http://www.bohemiancoding.com/sketch -->
    <title>Oval 4</title>
    <desc>Created with Sketch.</desc>
    <defs></defs>
    <g id="Page-1" stroke="none" stroke-width="1" fill="none" fill-rule="evenodd">
        <g id="Gekon_2_vol_10" transform="translate(-783.000000, -2229.000000)" fill="#51C930">
            <g id="1-screen" transform="translate(-557.000000, 51.000000)">
                <g id="ic" transform="translate(934.000000, 2178.000000)">
                    <g id="Group-2" transform="translate(406.000000, 0.000000)">
                        <path d="M77.7174891,22.8998325 C105.50666,22.8998325 131.507734,15.2440852 153.726657,1.92664729 C154.074793,1.71798386 154.081317,0.765845822 153.797834,0.576857177 C152.431121,-0.334284674 133.261757,1.69861818 131.474858,1.06242583 C129.506531,0.361639256 101.610121,1.07451437 74.9840635,1.06242583 C38.8471625,1.04601925 27.6046872,1.06242583 19.4044106,1.29649484 C16.5308905,1.37851671 6.85593005,0.709046527 2.09271541,0.576857177 C0.793810572,0.540809802 -0.615815459,0.508835503 0.284669691,1.06242583 C0.706458973,1.32172879 1.12964708,1.57897681 1.55422006,1.83415596 C23.8069843,15.2086323 49.8640486,22.8998325 77.7174891,22.8998325 Z" id="Oval-4"></path>
                    </g>
                </g>
            </g>
        </g>
    </g>
</svg>