<?xml version="1.0" encoding="utf-8"?>
<!-- Generator: Adobe Illustrator 24.1.2, SVG Export Plug-In . SVG Version: 6.00 Build 0)  -->
<svg version="1.1" id="Layer_1" xmlns="http://www.w3.org/2000/svg" xmlns:xlink="http://www.w3.org/1999/xlink" x="0px" y="0px"
	 viewBox="0 0 3421 1316" style="enable-background:new 0 0 3421 1316;" xml:space="preserve">
<style type="text/css">
	.st0{display:none;}
	.st1{display:inline;fill:url(#SVGID_2_);}
	.st2{clip-path:url(#SVGID_4_);}
	.st3{opacity:0.5;fill:url(#SVGID_5_);enable-background:new    ;}
	.st4{fill:url(#SVGID_6_);}
	.st5{fill:url(#SVGID_7_);}
	.st6{fill:url(#SVGID_8_);}
	.st7{fill:url(#SVGID_9_);}
	.st8{opacity:0.3;clip-path:url(#SVGID_11_);}
	.st9{fill:url(#SVGID_12_);}
	.st10{fill:url(#SVGID_13_);}
	.st11{fill:url(#SVGID_14_);}
	.st12{opacity:0.1;clip-path:url(#SVGID_16_);}
	.st13{fill:url(#SVGID_17_);}
	.st14{fill:url(#SVGID_18_);}
	.st15{fill:url(#SVGID_19_);}
	.st16{display:inline;}
	.st17{fill:#FF2626;}
</style>
<g>
	<g>
		<g class="st0">
			
				<linearGradient id="SVGID_2_" gradientUnits="userSpaceOnUse" x1="62.0586" y1="658.2" x2="3459.7427" y2="658.2" gradientTransform="matrix(1 0 0 -1 0 1316)">
				<stop  offset="4.950500e-03" style="stop-color:#E8E8E8"/>
				<stop  offset="0.2092" style="stop-color:#F2F2F2"/>
				<stop  offset="0.5628" style="stop-color:#FCFCFC"/>
				<stop  offset="1" style="stop-color:#FFFFFF"/>
			</linearGradient>
			<polygon id="SVGID_1_" class="st1" points="0,0 3420.5,0 3420.5,1315.6 0,1315.6 			"/>
		</g>
		<g>
			<defs>
				<rect id="SVGID_3_" width="3420.5" height="1315.6"/>
			</defs>
			<clipPath id="SVGID_4_">
				<use xlink:href="#SVGID_3_"  style="overflow:visible;"/>
			</clipPath>
			<g class="st2">
				
					<linearGradient id="SVGID_5_" gradientUnits="userSpaceOnUse" x1="2358.0613" y1="650.1" x2="1717.2279" y2="650.1" gradientTransform="matrix(1 0 0 -1 0 1316)">
					<stop  offset="0.1161" style="stop-color:#E8E8E8"/>
					<stop  offset="0.3015" style="stop-color:#F2F2F2"/>
					<stop  offset="0.6048" style="stop-color:#FCFCFC"/>
					<stop  offset="1" style="stop-color:#FFFFFF"/>
				</linearGradient>
				<polygon class="st3" points="2235.3,1017.9 2641.8,1017.9 2845,665.9 2641.8,313.9 2235.3,313.9 2032.1,665.9 				"/>
				
					<linearGradient id="SVGID_6_" gradientUnits="userSpaceOnUse" x1="2436.7405" y1="650.05" x2="2095.6194" y2="650.05" gradientTransform="matrix(1 0 0 -1 0 1316)">
					<stop  offset="0" style="stop-color:#CC0000"/>
					<stop  offset="3.191531e-03" style="stop-color:#CC0000"/>
					<stop  offset="0.3966" style="stop-color:#E81515"/>
					<stop  offset="0.7419" style="stop-color:#F92222"/>
					<stop  offset="1" style="stop-color:#FF2626"/>
				</linearGradient>
				<polygon class="st4" points="2416.2,1122.7 2943.6,1122.7 3207.3,665.9 2943.6,209.2 2416.2,209.2 2152.5,665.9 				"/>
				
					<linearGradient id="SVGID_7_" gradientUnits="userSpaceOnUse" x1="-6769.6367" y1="5034.5669" x2="-6423.8555" y2="5034.5669" gradientTransform="matrix(-1 0 0 1 -3998.335 -4368.667)">
					<stop  offset="0" style="stop-color:#CC0000"/>
					<stop  offset="3.191531e-03" style="stop-color:#CC0000"/>
					<stop  offset="0.3966" style="stop-color:#E81515"/>
					<stop  offset="0.7419" style="stop-color:#F92222"/>
					<stop  offset="1" style="stop-color:#FF2626"/>
				</linearGradient>
				<polygon class="st5" points="2807.1,1560.6 3840.2,1560.6 4356.7,665.9 3840.2,-228.8 2807.1,-228.8 2290.6,665.9 				"/>
				
					<linearGradient id="SVGID_8_" gradientUnits="userSpaceOnUse" x1="-8479.9355" y1="5034.5669" x2="-6413.835" y2="5034.5669" gradientTransform="matrix(-1 0 0 1 -3998.335 -4368.667)">
					<stop  offset="4.950500e-03" style="stop-color:#E8E8E8"/>
					<stop  offset="0.2092" style="stop-color:#F2F2F2"/>
					<stop  offset="0.5628" style="stop-color:#FCFCFC"/>
					<stop  offset="1" style="stop-color:#FFFFFF"/>
				</linearGradient>
				<polygon class="st6" points="2932,1560.6 3965.1,1560.6 4481.6,665.9 3965.1,-228.8 2932,-228.8 2415.5,665.9 				"/>
				
					<linearGradient id="SVGID_9_" gradientUnits="userSpaceOnUse" x1="-6803.5166" y1="5034.5669" x2="-6457.335" y2="5034.5669" gradientTransform="matrix(-1 0 0 1 -3998.335 -4368.667)">
					<stop  offset="0" style="stop-color:#CC0000"/>
					<stop  offset="3.191531e-03" style="stop-color:#CC0000"/>
					<stop  offset="0.3966" style="stop-color:#E81515"/>
					<stop  offset="0.7419" style="stop-color:#F92222"/>
					<stop  offset="1" style="stop-color:#FF2626"/>
				</linearGradient>
				<path class="st7" d="M3057.5,1553.2l-512.3-887.3l512.3-887.3h1024.6l512.3,887.3l-512.3,887.3H3057.5 M3053.3,1560.6h1033.1
					l516.5-894.7l-516.5-894.7H3053.3l-516.5,894.7L3053.3,1560.6L3053.3,1560.6z"/>
			</g>
		</g>
		<g>
			<defs>
				<rect id="SVGID_10_" width="3420.5" height="1315.6"/>
			</defs>
			<clipPath id="SVGID_11_">
				<use xlink:href="#SVGID_10_"  style="overflow:visible;"/>
			</clipPath>
			<g class="st8">
				
					<linearGradient id="SVGID_12_" gradientUnits="userSpaceOnUse" x1="-7024.0918" y1="5034.5669" x2="-6678.3105" y2="5034.5669" gradientTransform="matrix(-1 0 0 1 -3998.335 -4368.667)">
					<stop  offset="0" style="stop-color:#CC0000"/>
					<stop  offset="3.191531e-03" style="stop-color:#CC0000"/>
					<stop  offset="0.3966" style="stop-color:#E81515"/>
					<stop  offset="0.7419" style="stop-color:#F92222"/>
					<stop  offset="1" style="stop-color:#FF2626"/>
				</linearGradient>
				<polygon class="st9" points="3061.6,1560.6 4094.6,1560.6 4611.2,665.9 4094.6,-228.8 3061.6,-228.8 2545,665.9 				"/>
				
					<linearGradient id="SVGID_13_" gradientUnits="userSpaceOnUse" x1="-8734.4355" y1="5034.5669" x2="-6668.2349" y2="5034.5669" gradientTransform="matrix(-1 0 0 1 -3998.335 -4368.667)">
					<stop  offset="4.950500e-03" style="stop-color:#E8E8E8"/>
					<stop  offset="0.2092" style="stop-color:#F2F2F2"/>
					<stop  offset="0.5628" style="stop-color:#FCFCFC"/>
					<stop  offset="1" style="stop-color:#FFFFFF"/>
				</linearGradient>
				<polygon class="st10" points="3186.5,1560.6 4219.5,1560.6 4736.1,665.9 4219.5,-228.8 3186.5,-228.8 2669.9,665.9 				"/>
				
					<linearGradient id="SVGID_14_" gradientUnits="userSpaceOnUse" x1="-7053.2344" y1="5034.5669" x2="-6707.0527" y2="5034.5669" gradientTransform="matrix(-1 0 0 1 -3998.335 -4368.667)">
					<stop  offset="0" style="stop-color:#CC0000"/>
					<stop  offset="3.191531e-03" style="stop-color:#CC0000"/>
					<stop  offset="0.3966" style="stop-color:#E81515"/>
					<stop  offset="0.7419" style="stop-color:#F92222"/>
					<stop  offset="1" style="stop-color:#FF2626"/>
				</linearGradient>
				<path class="st11" d="M3307.3,1553.2L2795,665.9l512.3-887.3h1024.6l512.3,887.3l-512.3,887.3H3307.3 M3303,1560.6h1033.1
					l516.5-894.7l-516.5-894.7H3303l-516.5,894.7L3303,1560.6L3303,1560.6z"/>
			</g>
		</g>
		<g>
			<defs>
				<rect id="SVGID_15_" width="3420.5" height="1315.6"/>
			</defs>
			<clipPath id="SVGID_16_">
				<use xlink:href="#SVGID_15_"  style="overflow:visible;"/>
			</clipPath>
			<g class="st12">
				
					<linearGradient id="SVGID_17_" gradientUnits="userSpaceOnUse" x1="-7273.1328" y1="5034.5669" x2="-6927.3516" y2="5034.5669" gradientTransform="matrix(-1 0 0 1 -3998.335 -4368.667)">
					<stop  offset="0" style="stop-color:#CC0000"/>
					<stop  offset="3.191531e-03" style="stop-color:#CC0000"/>
					<stop  offset="0.3966" style="stop-color:#E81515"/>
					<stop  offset="0.7419" style="stop-color:#F92222"/>
					<stop  offset="1" style="stop-color:#FF2626"/>
				</linearGradient>
				<polygon class="st13" points="3310.6,1560.6 4343.7,1560.6 4860.2,665.9 4343.7,-228.8 3310.6,-228.8 2794.1,665.9 				"/>
				
					<linearGradient id="SVGID_18_" gradientUnits="userSpaceOnUse" x1="-8983.4355" y1="5034.5669" x2="-6917.335" y2="5034.5669" gradientTransform="matrix(-1 0 0 1 -3998.335 -4368.667)">
					<stop  offset="4.950500e-03" style="stop-color:#E8E8E8"/>
					<stop  offset="0.2092" style="stop-color:#F2F2F2"/>
					<stop  offset="0.5628" style="stop-color:#FCFCFC"/>
					<stop  offset="1" style="stop-color:#FFFFFF"/>
				</linearGradient>
				<polygon class="st14" points="3435.5,1560.6 4468.6,1560.6 4985.1,665.9 4468.6,-228.8 3435.5,-228.8 2919,665.9 				"/>
				
					<linearGradient id="SVGID_19_" gradientUnits="userSpaceOnUse" x1="-7302.2754" y1="5034.5669" x2="-6956.0928" y2="5034.5669" gradientTransform="matrix(-1 0 0 1 -3998.335 -4368.667)">
					<stop  offset="0" style="stop-color:#CC0000"/>
					<stop  offset="3.191531e-03" style="stop-color:#CC0000"/>
					<stop  offset="0.3966" style="stop-color:#E81515"/>
					<stop  offset="0.7419" style="stop-color:#F92222"/>
					<stop  offset="1" style="stop-color:#FF2626"/>
				</linearGradient>
				<path class="st15" d="M3556.3,1553.2L3044,665.9l512.3-887.3h1024.6l512.3,887.3l-512.3,887.3H3556.3 M3552.1,1560.6h1033.1
					l516.5-894.7l-516.5-894.7H3552.1l-516.5,894.7L3552.1,1560.6L3552.1,1560.6z"/>
			</g>
		</g>
	</g>
	<g class="st0">
		<g class="st16">
			<path class="st17" d="M231,679h-10.4v-64.6c0-8.9,4.2-13.4,12.5-13.4h7.8c8.3,0,12.5,4.5,12.5,13.4V679H243v-28.6h-12V679z
				 M243,641v-26c0-3-1.5-4.6-4.6-4.6h-2.8c-3,0-4.6,1.5-4.6,4.6v26H243z"/>
			<path class="st17" d="M294.5,638.9c5.7,1.6,8.6,4.6,8.6,8.9v19.6c0,7.8-3.9,11.6-11.8,11.6h-21v-78h17.8
				c9.3,0,13.9,4.7,13.9,14.1v15c0,4.5-2.5,7.2-7.5,8.3V638.9z M280.7,633.9h4.9c4,0,6-1.9,6-5.6v-12.2c0-3.8-1.6-5.7-4.7-5.7h-6.2
				L280.7,633.9L280.7,633.9z M280.7,669.6h7.8c2.8,0,4.1-1.1,4.1-3.4v-17.3c0-3.7-2.1-5.5-6.2-5.5h-5.8v26.2H280.7z"/>
			<path class="st17" d="M339.3,622v-6.8c0-3.1-1.5-4.7-4.6-4.7h-1.6c-3,0-4.5,1.6-4.5,4.7v12.9c0,1.4,0.3,2.4,0.9,2.9
				s1.5,1.2,2.8,2l9.9,5.3c2.2,1.2,3.7,2.2,4.6,2.9s1.6,1.5,2.1,2.5s0.8,2.8,0.8,5.6v16.6c0,8.8-4.2,13.1-12.6,13.1h-6.4
				c-8.3,0-12.5-4.8-12.5-14.3v-3.9h10.4v4.2c0,3,1.6,4.6,4.7,4.6h1.8c2.8,0,4.1-1.5,4.1-4.6v-13.3c0-1.4-0.3-2.4-0.9-2.9
				s-1.5-1.2-2.8-2l-9.9-5.5c-2.2-1.2-3.7-2.1-4.7-2.9c-1-0.8-1.7-1.8-2.1-3.1s-0.7-2.9-0.7-4.9v-16c0-8.9,4.2-13.4,12.5-13.4h6.5
				c8.3,0,12.5,4.5,12.5,13.4v7.6L339.3,622L339.3,622z"/>
			<path class="st17" d="M382.7,610.5V679h-10.4v-68.6h-10V601h30.4v9.5H382.7z"/>
			<path class="st17" d="M406.3,601h20.4c8,0,11.9,4.5,11.9,13.4v19.2c0,6.8-2.1,11.1-6.2,12.9l7.3,32.5h-9.9l-6.8-31.5h-6.3V679
				h-10.4V601z M416.7,638.6h6.8c3.1,0,4.7-1.9,4.7-5.6v-16.8c0-3.8-1.6-5.7-4.7-5.7h-6.8V638.6z"/>
			<path class="st17" d="M464.8,679h-10.4v-64.6c0-8.9,4.2-13.4,12.5-13.4h7.8c8.3,0,12.5,4.5,12.5,13.4V679h-10.4v-28.6h-12V679z
				 M476.8,641v-26c0-3-1.5-4.6-4.6-4.6h-2.8c-3,0-4.6,1.5-4.6,4.6v26H476.8z"/>
			<path class="st17" d="M535.2,660.8v5c0,8.8-4.2,13.3-12.5,13.3H516c-8.3,0-12.5-4.4-12.5-13.3v-51.5c0-8.8,4.2-13.3,12.5-13.3
				h6.7c8.3,0,12.5,4.4,12.5,13.3v8.8h-10.4v-8c0-3-1.6-4.6-4.7-4.6H518c-2.8,0-4.1,1.5-4.1,4.6v50c0,3,1.4,4.6,4.1,4.6h2.6
				c2.8,0,4.1-1.5,4.1-4.6v-4.2L535.2,660.8L535.2,660.8z"/>
			<path class="st17" d="M567.6,610.5V679h-10.4v-68.6h-10V601h30.4v9.5H567.6z"/>
		</g>
		<g class="st16">
			<path class="st17" d="M235.1,726.8c3.7,1,5.5,2.9,5.5,5.8v12.6c0,5-2.6,7.5-7.7,7.5h-13.5v-50.4h11.5c6,0,9,3,9,9.1v9.7
				c0,2.9-1.6,4.7-4.8,5.3V726.8z M226.1,723.5h3.2c2.6,0,3.9-1.2,3.9-3.6V712c0-2.4-1-3.6-3-3.6h-4L226.1,723.5L226.1,723.5z
				 M226.1,746.6h5.1c1.8,0,2.7-0.7,2.7-2.2v-11.2c0-2.4-1.3-3.6-4-3.6h-3.7v17H226.1z"/>
			<path class="st17" d="M271.6,752.7h-6.7v-41.8c0-5.8,2.7-8.6,8.1-8.6h5.1c5.4,0,8.1,2.9,8.1,8.6v41.8h-6.7v-18.5h-7.7v18.5H271.6
				z M279.3,728.1v-16.8c0-2-1-2.9-3-2.9h-1.8c-2,0-3,1-3,2.9v16.8H279.3z"/>
			<path class="st17" d="M331.1,740.9v3.2c0,5.7-2.7,8.6-8.1,8.6h-4.4c-5.4,0-8.1-2.9-8.1-8.6v-33.3c0-5.7,2.7-8.6,8.1-8.6h4.4
				c5.4,0,8.1,2.9,8.1,8.6v5.7h-6.7v-5.2c0-2-1-2.9-3-2.9H320c-1.8,0-2.7,1-2.7,2.9v32.3c0,2,0.9,2.9,2.7,2.9h1.7
				c1.8,0,2.7-1,2.7-2.9v-2.7H331.1z"/>
			<path class="st17" d="M362.1,752.7h-6.7v-50.4h6.7V752.7z M377.6,752.7h-6.7l-8.4-24.6v-0.4l7-25.3h6.2l-7.1,25.1L377.6,752.7z"
				/>
			<path class="st17" d="M410.8,734.2v-6.1H421v24.6h-13.2c-5.2,0-7.8-2.8-7.8-8.5v-33.3c0-5.8,2.6-8.6,7.8-8.6h4.6
				c5.7,0,8.6,2.9,8.6,8.8v5.5h-6.7V712c0-2.4-1-3.6-2.9-3.6h-1.7c-2,0-3,1.2-3,3.6v30.9c0,2.4,1,3.6,3,3.6h4.6v-12.4h-3.5V734.2z"
				/>
			<path class="st17" d="M445.4,702.3h13.2c5.1,0,7.7,2.9,7.7,8.6v12.4c0,4.4-1.3,7.2-4,8.4l4.7,21h-6.4l-4.4-20.4h-4.1v20.4h-6.7
				L445.4,702.3L445.4,702.3z M452.2,726.6h4.4c2,0,3-1.2,3-3.6v-11c0-2.4-1-3.6-3-3.6h-4.4V726.6z"/>
			<path class="st17" d="M498.7,752.7c-5.4,0-8.1-2.9-8.1-8.6v-33.2c0-5.8,2.7-8.6,8.1-8.6h6.5c5.4,0,8.1,2.9,8.1,8.6v33.2
				c0,5.7-2.7,8.6-8.1,8.6H498.7z M500.3,746.6h3.4c1.8,0,2.7-1,2.7-2.9v-32.3c0-2-1-2.9-3-2.9h-3.2c-2,0-3,1-3,2.9v32.3
				C497.3,745.6,498.3,746.6,500.3,746.6z"/>
			<path class="st17" d="M560,702.3v40.9c0,6.4-2.7,9.5-8.1,9.5h-5.7c-5.4,0-8.1-3.2-8.1-9.6v-40.8h6.7v41c0,2.2,1,3.3,2.9,3.3h2.7
				c1.8,0,2.7-1.1,2.7-3.3v-41L560,702.3L560,702.3z"/>
			<path class="st17" d="M599.3,726.6v-24.4h6.7v50.4h-6.7v-10l-7.2-23v33h-6.7v-50.4h6.7L599.3,726.6z"/>
			<path class="st17" d="M631.3,752.7v-50.4H643c6.3,0,9.5,3.2,9.5,9.7v33.4c0,4.9-2.7,7.3-8.1,7.3H631.3z M638,746.6h5.1
				c1.8,0,2.7-0.7,2.7-2.2V712c0-2.4-1-3.6-3-3.6H638V746.6z"/>
		</g>
		<g class="st16">
			<g>
				
					<rect x="615.5" y="569.2" transform="matrix(0.7071 -0.7071 0.7071 0.7071 -237.6733 612.0881)" class="st17" width="9.1" height="47.4"/>
			</g>
			<g>
				
					<rect x="596.3" y="588.5" transform="matrix(0.7071 -0.7071 0.7071 0.7071 -237.7287 612.1112)" class="st17" width="47.4" height="9.1"/>
			</g>
		</g>
	</g>
</g>
</svg>
