<svg width="146" height="44" viewBox="0 0 146 44" fill="none" xmlns="http://www.w3.org/2000/svg"><path d="M31.83 24.882V0L0 18.157v25.842l15.333-9.703V17.533l4.803-2.69v16.765l11.694-6.725z" fill="#E4032D"/><path d="M20.136 14.842h4.755v16.765h-4.755V14.842zm12.374 7.542v9.223h-4.804V14.841h4.124l7.715 9.223v-9.223H44.3v16.765h-4.124l-7.667-9.223zm14.604-7.542h7.86c4.998.048 8.734 2.978 8.734 8.406 0 5.38-3.736 8.358-8.734 8.358h-7.86V14.843zm4.804 4.083v8.55h2.862c2.378 0 4.028-1.537 4.028-4.275 0-2.738-1.602-4.323-4.028-4.323h-2.862v.048zm17.758-4.083h5.629l6.307 16.765H76.76l-1.019-2.835h-6.599l-.97 2.835H63.37l6.307-16.765zm.68 10.424h4.22l-2.085-5.764-2.135 5.764zm12.324 1.598c1.455.72 3.638 1.441 5.58 1.441 1.406 0 1.794-.384 1.843-1.105.049-.72-.728-1.248-1.795-1.585l-2.038-.672c-2.62-.865-4.27-2.258-4.27-4.708C82 17.305 84.232 15 88.793 15c1.99 0 3.979.721 5.337 1.25v4.323c-1.261-.625-4.075-1.586-5.531-1.682-1.359-.096-1.844.385-1.844 1.105 0 .528.582 1.009 1.213 1.201.825.288 2.863.96 2.863.96 3.3 1.25 4.464 2.739 4.464 4.996 0 3.17-2.814 5.092-7.181 5.092-1.893 0-3.882-.48-5.24-1.009-.05 0-.243-.096-.243-.096v-4.275h.048zm29.646-12.022h8.54c3.736 0 6.308 1.826 6.308 5.62a5.006 5.006 0 0 1-3.882 4.9l5.58 6.245h-5.531l-4.95-5.86h-1.31v5.86h-4.803V14.841h.048zm4.804 4.083v3.41h3.348c1.164 0 1.795-.768 1.795-1.729 0-.96-.631-1.729-1.795-1.729h-3.348v.048zm20.136-4.323c4.998 0 8.734 3.699 8.734 8.646 0 4.9-3.736 8.599-8.734 8.599-4.949 0-8.685-3.7-8.685-8.599 0-4.947 3.736-8.646 8.685-8.646zm.049 12.921c2.426 0 4.124-1.873 4.124-4.275 0-2.401-1.698-4.275-4.124-4.275-2.426 0-4.125 1.874-4.125 4.275 0 2.354 1.699 4.275 4.125 4.275zm-31.636-8.598v12.633h-4.755V18.925h-4.852v-4.13h14.459v4.13h-4.852z" fill="#fff"/></svg>