<svg width="167" height="51" viewBox="0 0 167 51" fill="none" xmlns="http://www.w3.org/2000/svg">
<path d="M35.7498 28.3724V0L0 20.7006V50.1401L17.2345 39.0976V19.9948L22.6032 16.8976V35.9895L35.7498 28.3724Z" fill="#E4032D"/>
<path d="M74.6528 46.0006C74.6528 46.8332 74.2324 47.3247 73.3628 47.5213V47.5502C74.3073 47.7526 74.7795 48.2556 74.7795 49.0766C74.7795 49.6548 74.5722 50.1 74.1748 50.418C73.7717 50.7476 73.1958 50.9095 72.4644 50.9095C71.7675 50.9095 71.1916 50.7823 70.7251 50.5394V50.0942C70.9958 50.2272 71.2895 50.3313 71.5947 50.4007C71.9 50.4758 72.1994 50.5163 72.4701 50.5163C73.046 50.5163 73.4953 50.3949 73.8235 50.1405C74.1518 49.8919 74.3131 49.5392 74.3131 49.0997C74.3131 48.6661 74.146 48.3307 73.8293 48.111C73.501 47.8855 73.023 47.7757 72.3837 47.7757H71.4565V47.3652H72.4183C73.0172 47.3652 73.4722 47.2495 73.7544 47.0183C74.0481 46.787 74.1864 46.4632 74.1864 46.0353C74.1864 45.6826 74.0539 45.3935 73.789 45.1796C73.5298 44.9599 73.1785 44.8616 72.7581 44.8616C72.4413 44.8616 72.1476 44.9021 71.8884 44.9888C71.6178 45.0813 71.3298 45.2317 71.0246 45.4514L70.7712 45.1044C71.3471 44.6708 72.0094 44.4453 72.7523 44.4453C73.3398 44.4453 73.8062 44.5899 74.1345 44.8674C74.4858 45.1507 74.6528 45.5323 74.6528 46.0006Z" fill="#37383A"/>
<path d="M76.5072 46.1514V48.1982H79.4617V46.1514H79.8763V50.8174H79.4617V48.5682H76.5072V50.8174H76.0868V46.1514H76.5072Z" fill="#37383A"/>
<path d="M84.305 50.8171L84.2014 50.0828H84.1668C83.9192 50.3834 83.6831 50.5916 83.4412 50.7246C83.1935 50.846 82.8998 50.9096 82.5715 50.9096C82.1051 50.9096 81.748 50.7882 81.5003 50.5569C81.2469 50.3141 81.1202 49.9961 81.1202 49.5855C81.1202 49.1288 81.3161 48.7703 81.6962 48.5217C82.0705 48.2673 82.6234 48.1401 83.3375 48.1285L84.2187 48.0996V47.7874C84.2187 47.3364 84.138 47.0184 83.948 46.7871C83.7752 46.5558 83.4757 46.446 83.0783 46.446C82.6464 46.446 82.1972 46.5674 81.7422 46.8044L81.5925 46.4344C82.0993 46.1916 82.6003 46.0759 83.1071 46.0759C83.6139 46.0759 83.9998 46.2089 84.2475 46.4749C84.4951 46.7408 84.6218 47.1514 84.6218 47.718V50.8286H84.305V50.8171ZM82.5888 50.5164C83.0784 50.5164 83.4815 50.3777 83.7637 50.0943C84.0574 49.8053 84.1956 49.4121 84.1956 48.9033V48.4407L83.3893 48.4754C82.7213 48.5043 82.2606 48.6084 81.9841 48.7819C81.7134 48.9495 81.5752 49.2271 81.5752 49.5913C81.5752 49.8862 81.6558 50.1117 81.8459 50.2678C82.0129 50.4355 82.2606 50.5164 82.5888 50.5164Z" fill="#37383A"/>
<path d="M88.0371 50.9095C87.3575 50.9095 86.8277 50.7014 86.4533 50.2793C86.079 49.863 85.8889 49.279 85.8889 48.5216C85.8889 47.7815 86.0617 47.186 86.4303 46.7408C86.8046 46.284 87.2884 46.0701 87.9104 46.0701C88.4633 46.0701 88.8952 46.2551 89.2119 46.6425C89.5287 47.0299 89.69 47.556 89.69 48.2094V48.5389H86.3381C86.3381 49.1807 86.4936 49.6722 86.7816 50.0075C87.0753 50.3371 87.4957 50.5163 88.0371 50.5163C88.2962 50.5163 88.5324 50.499 88.7397 50.4643C88.9413 50.4181 89.1947 50.3429 89.4999 50.2157V50.6031C89.2292 50.7187 88.9931 50.7997 88.7742 50.8401C88.5554 50.8806 88.3078 50.9095 88.0371 50.9095ZM87.9104 46.4401C87.4784 46.4401 87.1156 46.5847 86.8334 46.8795C86.5743 47.1744 86.413 47.6023 86.3612 48.1631H89.235C89.235 47.6254 89.114 47.1975 88.8952 46.8969C88.6476 46.5904 88.3308 46.4401 87.9104 46.4401Z" fill="#37383A"/>
<path d="M93.1748 50.3664L93.434 49.6205L94.7701 46.1514H95.3576V50.8174H94.9602V46.666C94.9026 46.8394 94.845 47.0186 94.7586 47.2152C94.701 47.4118 94.2288 48.6029 93.3764 50.8174H92.9905L91.7005 47.539C91.6544 47.406 91.5968 47.2615 91.5623 47.1169C91.5162 46.9782 91.4701 46.8163 91.3953 46.6486V50.8231H91.0094V46.1571H91.5738L92.9214 49.5974C93.0251 49.8633 93.1057 50.1235 93.1748 50.3664Z" fill="#37383A"/>
<path d="M96.8711 50.4815C96.8711 50.1982 96.9863 50.0652 97.2224 50.0652C97.447 50.0652 97.5622 50.1982 97.5622 50.4815C97.5622 50.7648 97.447 50.9093 97.2224 50.9093C96.9863 50.9093 96.8711 50.7648 96.8711 50.4815Z" fill="#37383A"/>
<path d="M101.795 50.9097C101.456 50.9097 101.185 50.8692 100.972 50.7767V50.3315C101.219 50.4355 101.479 50.4934 101.749 50.4934C101.945 50.4934 102.135 50.4645 102.273 50.3951C102.412 50.3199 102.567 50.2043 102.682 50.0539C102.809 49.8978 102.953 49.6376 103.137 49.2734L100.649 44.5322H101.168L103.08 48.2153C103.183 48.4061 103.281 48.6142 103.362 48.834L103.466 48.568L105.274 44.538H105.763L103.748 48.9612C103.633 49.2503 103.5 49.5162 103.385 49.7475C103.27 49.9903 103.137 50.2043 102.999 50.3719C102.861 50.5454 102.682 50.6784 102.492 50.7651C102.308 50.8634 102.078 50.9097 101.795 50.9097Z" fill="#37383A"/>
<path d="M108.747 50.3664L109.018 49.6205L110.354 46.1514H110.942V50.8174H110.533V46.666C110.475 46.8394 110.406 47.0186 110.331 47.2152C110.262 47.4118 109.79 48.6029 108.938 50.8174H108.563L107.273 47.539C107.216 47.406 107.169 47.2615 107.135 47.1169C107.077 46.9782 107.031 46.8163 106.968 46.6486V50.8231H106.582V46.1571H107.146L108.483 49.5974C108.598 49.8633 108.678 50.1235 108.747 50.3664Z" fill="#37383A"/>
<path d="M114.414 50.9095C113.735 50.9095 113.205 50.7014 112.831 50.2793C112.445 49.863 112.255 49.279 112.255 48.5216C112.255 47.7815 112.445 47.186 112.808 46.7408C113.17 46.284 113.677 46.0701 114.288 46.0701C114.84 46.0701 115.272 46.2551 115.589 46.6425C115.906 47.0299 116.056 47.556 116.056 48.2094V48.5389H112.704C112.715 49.1807 112.854 49.6722 113.159 50.0075C113.441 50.3371 113.873 50.5163 114.414 50.5163C114.685 50.5163 114.904 50.499 115.105 50.4643C115.319 50.4181 115.572 50.3429 115.866 50.2157V50.6031C115.606 50.7187 115.359 50.7997 115.14 50.8401C114.933 50.8806 114.685 50.9095 114.414 50.9095ZM114.288 46.4401C113.844 46.4401 113.476 46.5847 113.211 46.8795C112.94 47.1744 112.779 47.6023 112.744 48.1631H115.606C115.606 47.6254 115.503 47.1975 115.267 46.8969C115.025 46.5904 114.697 46.4401 114.288 46.4401Z" fill="#37383A"/>
<path d="M119.257 50.9095C118.577 50.9095 118.048 50.7014 117.673 50.2793C117.299 49.863 117.109 49.279 117.109 48.5216C117.109 47.7815 117.282 47.186 117.65 46.7408C118.025 46.284 118.52 46.0701 119.13 46.0701C119.683 46.0701 120.115 46.2551 120.432 46.6425C120.749 47.0299 120.91 47.556 120.91 48.2094V48.5389H117.541C117.552 49.1807 117.708 49.6722 117.996 50.0075C118.29 50.3371 118.698 50.5163 119.251 50.5163C119.522 50.5163 119.758 50.499 119.954 50.4643C120.155 50.4181 120.403 50.3429 120.714 50.2157V50.6031C120.455 50.7187 120.207 50.7997 119.977 50.8401C119.775 50.8806 119.528 50.9095 119.257 50.9095ZM119.13 46.4401C118.687 46.4401 118.336 46.5847 118.053 46.8795C117.783 47.1744 117.621 47.6023 117.587 48.1631H120.461C120.461 47.6254 120.346 47.1975 120.109 46.8969C119.868 46.5904 119.551 46.4401 119.13 46.4401Z" fill="#37383A"/>
<path d="M124.395 50.3664L124.654 49.6205L125.99 46.1514H126.578V50.8174H126.18V46.666C126.123 46.8394 126.054 47.0186 125.979 47.2152C125.921 47.4118 125.449 48.6029 124.585 50.8174H124.211L122.921 47.539C122.875 47.406 122.817 47.2615 122.771 47.1169C122.736 46.9782 122.679 46.8163 122.633 46.6486V50.8231H122.235V46.1571H122.8L124.136 49.5974C124.245 49.8633 124.326 50.1235 124.395 50.3664Z" fill="#37383A"/>
<path d="M128.098 50.4815C128.098 50.1982 128.207 50.0652 128.437 50.0652C128.662 50.0652 128.777 50.1982 128.777 50.4815C128.777 50.7648 128.662 50.9093 128.437 50.9093C128.207 50.9093 128.098 50.7648 128.098 50.4815Z" fill="#37383A"/>
<path d="M166 50.4964C166 50.2131 166.109 50.0801 166.34 50.0801C166.564 50.0801 166.68 50.2131 166.68 50.4964C166.68 50.7797 166.564 50.9242 166.34 50.9242C166.109 50.9242 166 50.7797 166 50.4964Z" fill="#37383A"/>
<path d="M136.483 46.342C136.483 46.9491 136.27 47.4174 135.873 47.7354C135.441 48.065 134.876 48.2326 134.128 48.2326H133.154V50.8229H132.723V44.5322H134.249C135.735 44.5322 136.483 45.1393 136.483 46.342ZM133.154 47.8453H134.013C134.715 47.8453 135.234 47.7296 135.55 47.4926C135.855 47.2555 136.017 46.8855 136.017 46.3593C136.017 45.8794 135.867 45.5209 135.573 45.2839C135.268 45.0468 134.807 44.9312 134.191 44.9312H133.16V47.8453H133.154Z" fill="#37383A"/>
<path d="M139.651 50.9095C138.983 50.9095 138.442 50.7014 138.068 50.2793C137.693 49.863 137.492 49.279 137.492 48.5216C137.492 47.7815 137.682 47.186 138.045 46.7408C138.419 46.284 138.903 46.0701 139.536 46.0701C140.078 46.0701 140.509 46.2551 140.826 46.6425C141.143 47.0299 141.304 47.556 141.304 48.2094V48.5389H137.941C137.952 49.1807 138.108 49.6722 138.396 50.0075C138.69 50.3371 139.11 50.5163 139.651 50.5163C139.911 50.5163 140.158 50.499 140.342 50.4643C140.556 50.4181 140.809 50.3429 141.114 50.2157V50.6031C140.844 50.7187 140.607 50.7997 140.389 50.8401C140.17 50.8806 139.922 50.9095 139.651 50.9095ZM139.536 46.4401C139.081 46.4401 138.713 46.5847 138.453 46.8795C138.171 47.1744 138.022 47.6023 137.975 48.1631H140.849C140.849 47.6254 140.728 47.1975 140.498 46.8969C140.262 46.5904 139.945 46.4401 139.536 46.4401Z" fill="#37383A"/>
<path d="M145.784 50.4126H148.105V46.1514H148.526V50.8174H142.617V46.1514H143.049V50.4126H145.358V46.1514H145.778V50.4126H145.784Z" fill="#37383A"/>
<path d="M152.955 50.8171L152.851 50.0828H152.817C152.581 50.3834 152.35 50.5916 152.103 50.7246C151.844 50.846 151.561 50.9096 151.21 50.9096C150.767 50.9096 150.415 50.7882 150.145 50.5569C149.897 50.3141 149.782 49.9961 149.782 49.5855C149.782 49.1288 149.955 48.7703 150.346 48.5217C150.72 48.2673 151.273 48.1401 151.988 48.1285L152.869 48.0996V47.7874C152.869 47.3364 152.788 47.0184 152.598 46.7871C152.425 46.5558 152.131 46.446 151.74 46.446C151.296 46.446 150.859 46.5674 150.392 46.8044L150.231 46.4344C150.749 46.1916 151.25 46.0759 151.746 46.0759C152.264 46.0759 152.65 46.2089 152.897 46.4749C153.157 46.7408 153.272 47.1514 153.272 47.718V50.8286H152.955V50.8171ZM151.239 50.5164C151.728 50.5164 152.12 50.3777 152.414 50.0943C152.707 49.8053 152.846 49.4121 152.846 48.9033V48.4407L152.011 48.4754C151.366 48.5043 150.911 48.6084 150.628 48.7819C150.358 48.9495 150.208 49.2271 150.208 49.5913C150.208 49.8862 150.312 50.1117 150.49 50.2678C150.651 50.4355 150.911 50.5164 151.239 50.5164Z" fill="#37383A"/>
<path d="M156.68 50.9095C156 50.9095 155.471 50.7014 155.108 50.2793C154.722 49.863 154.532 49.279 154.532 48.5216C154.532 47.7815 154.71 47.186 155.085 46.7408C155.448 46.284 155.943 46.0701 156.559 46.0701C157.1 46.0701 157.532 46.2551 157.849 46.6425C158.177 47.0299 158.327 47.556 158.327 48.2094V48.5389H154.975C154.987 49.1807 155.125 49.6722 155.419 50.0075C155.712 50.3371 156.133 50.5163 156.674 50.5163C156.945 50.5163 157.17 50.499 157.377 50.4643C157.578 50.4181 157.832 50.3429 158.137 50.2157V50.6031C157.866 50.7187 157.63 50.7997 157.411 50.8401C157.198 50.8806 156.962 50.9095 156.68 50.9095ZM156.565 46.4401C156.121 46.4401 155.753 46.5847 155.488 46.8795C155.206 47.1744 155.056 47.6023 155.004 48.1631H157.878C157.878 47.6254 157.763 47.1975 157.538 46.8969C157.302 46.5904 156.974 46.4401 156.565 46.4401Z" fill="#37383A"/>
<path d="M161.817 50.3664L162.076 49.6205L163.424 46.1514H164V50.8174H163.614V46.666C163.545 46.8394 163.487 47.0186 163.401 47.2152C163.343 47.4118 162.871 48.6029 162.007 50.8174H161.633L160.354 47.539C160.285 47.406 160.233 47.2615 160.187 47.1169C160.141 46.9782 160.095 46.8163 160.032 46.6486V50.8231H159.646V46.1571H160.21L161.546 49.5974C161.667 49.8633 161.748 50.1235 161.817 50.3664Z" fill="#37383A"/>
<path d="M22.6035 16.8977H27.9668V35.9786H22.6035V16.8977Z" fill="#37383A"/>
<path d="M36.5026 25.4833V35.9786H31.1284V16.8977H35.7668L44.4058 27.4204V16.8977H49.7691V35.9786H45.1307L36.5026 25.4833Z" fill="#37383A"/>
<path d="M52.9352 16.8977H61.7704C67.3899 16.9305 71.5813 20.2685 71.5813 26.4628C71.5813 32.6133 67.3844 35.9786 61.7704 35.9786H52.9352V16.8977ZM58.3039 21.5599V31.3274H61.5415C64.2232 31.3274 66.0436 29.5545 66.0436 26.4628C66.0436 23.3219 64.2232 21.5599 61.5415 21.5599H58.3039Z" fill="#37383A"/>
<path d="M78.2693 16.8977H84.5809L91.6557 35.9786H86.227L85.0878 32.7501H77.6752L76.5578 35.9786H71.14L78.2693 16.8977ZM79.0214 28.7939H83.7579L81.4197 22.2001L79.0214 28.7939Z" fill="#37383A"/>
<path d="M92.9634 30.2058C94.5822 31.0048 97.0458 31.842 99.2315 31.842C100.785 31.842 101.275 31.4097 101.319 30.5834C101.384 29.7353 100.485 29.1443 99.3078 28.7995L97.0186 28.028C94.0753 27.0321 92.233 25.4397 92.233 22.6545C92.233 19.2892 94.7403 16.6626 99.8365 16.6626C102.066 16.6626 104.284 17.4725 105.832 18.0634V22.9718C104.388 22.2824 101.259 21.1661 99.6185 21.0676C98.0869 20.9855 97.5636 21.5272 97.5636 22.3207C97.5636 22.9281 98.2177 23.4479 98.948 23.6887C99.891 24.0279 102.18 24.7831 102.18 24.7831C105.908 26.2167 107.2 27.8857 107.2 30.4685C107.2 34.08 104.039 36.2688 99.1388 36.2688C97.0077 36.2688 94.7675 35.6943 93.2577 35.1252C93.2032 35.1088 92.9579 35.0103 92.9579 35.0103V30.2058H92.9634Z" fill="#37383A"/>
<path d="M126.206 16.8977H135.821C139.996 16.8977 142.901 18.999 142.901 23.3C142.901 25.9648 141.124 28.2795 138.519 28.876L144.809 35.9786H138.606L133.057 29.2973H131.58V35.9786H126.206V16.8977ZM131.58 21.5599V25.4614H135.319C136.628 25.4614 137.363 24.5859 137.363 23.5134C137.363 22.4299 136.633 21.5599 135.319 21.5599H131.58Z" fill="#37383A"/>
<path d="M154.2 16.6353C159.814 16.6353 164 20.8432 164 26.4794C164 32.0609 159.814 36.2743 154.2 36.2743C148.629 36.2743 144.432 32.0609 144.432 26.4794C144.432 20.8432 148.624 16.6353 154.2 16.6353ZM154.254 31.3276C156.996 31.3276 158.882 29.1771 158.882 26.4794C158.882 23.7325 156.996 21.6093 154.254 21.6093C151.545 21.6093 149.638 23.7325 149.638 26.4794C149.638 29.1771 151.545 31.3276 154.254 31.3276Z" fill="#37383A"/>
<path d="M118.712 21.5874V35.9843H113.348V21.5874H107.898V16.9033H124.113V21.5874H118.712Z" fill="#37383A"/>
</svg>
