<?xml version="1.0" encoding="utf-8"?>
<!-- Generator: Adobe Illustrator 24.1.2, SVG Export Plug-In . SVG Version: 6.00 Build 0)  -->
<svg version="1.1" xmlns="http://www.w3.org/2000/svg" xmlns:xlink="http://www.w3.org/1999/xlink" x="0px" y="0px"
	 viewBox="0 0 800 800" style="enable-background:new 0 0 800 800;" xml:space="preserve">
<style type="text/css">
	.st0{fill:url(#SVGID_1_);stroke:#6B6D6D;stroke-miterlimit:10;}
	.st1{fill:url(#SVGID_2_);stroke:#2D2D2D;stroke-miterlimit:10;}
	.st2{display:none;fill:url(#SVGID_3_);stroke:#27AAE1;stroke-miterlimit:10;}
</style>
<g id="Layer_1">
</g>
<g id="Layer_2">
</g>
<g id="Layer_3">
	<g>
		<g>
			<linearGradient id="SVGID_1_" gradientUnits="userSpaceOnUse" x1="385.2403" y1="324.053" x2="266.5061" y2="410.5226">
				<stop  offset="0" style="stop-color:#DA1C5C"/>
				<stop  offset="1" style="stop-color:#9E1F63"/>
			</linearGradient>
			<path class="st0" d="M589.6,331.6L354.2,195.7l-64.9-37.4c-24.7-14.3-54.2-14.3-78.9,0c-24.7,14.3-39.5,39.8-39.5,68.4v346.8
				c0,28.5,14.8,54.1,39.5,68.4c12.4,7.1,25.9,10.7,39.5,10.7c13.6,0,27.1-3.6,39.5-10.7l51.9-30l71.5-41.3l177-102.2
				c24.7-14.3,39.5-39.8,39.5-68.4C629.1,371.5,614.4,345.9,589.6,331.6z M558,413.6L368.7,522.9l-25.2,14.6L257.7,587
				c-7.1,4.1-13.3,1.4-15.7,0c-2.4-1.4-7.9-5.4-7.9-13.6V226.6c0-8.2,5.5-12.2,7.9-13.6c1.4-0.8,4.3-2.2,7.9-2.2
				c2.3,0,5,0.6,7.8,2.2l94.3,54.4l206.1,119c7.1,4.1,7.9,10.9,7.9,13.6C565.9,402.7,565.1,409.5,558,413.6z"/>
		</g>
		<linearGradient id="SVGID_2_" gradientUnits="userSpaceOnUse" x1="103.9856" y1="433.1368" x2="359.6033" y2="556.9099">
			<stop  offset="0" style="stop-color:#EE4168"/>
			<stop  offset="1" style="stop-color:#9E1F63"/>
		</linearGradient>
		<path class="st1" d="M412.7,570.5l-123.4,71.2c-12.4,7.1-25.9,10.7-39.5,10.7c-13.6,0-27.1-3.6-39.5-10.7
			c-24.7-14.3-39.5-39.8-39.5-68.4V308.2l63.3,68.6v196.6c0,8.2,5.5,12.2,7.9,13.6c2.4,1.4,8.6,4.1,15.7,0l111.1-64.1L412.7,570.5z"
			/>
		<linearGradient id="SVGID_3_" gradientUnits="userSpaceOnUse" x1="495.7956" y1="283.855" x2="416.728" y2="635.6471">
			<stop  offset="0" style="stop-color:#DA1C5C"/>
			<stop  offset="1" style="stop-color:#9E1F63"/>
		</linearGradient>
		<path class="st2" d="M629.1,400c0,28.5-14.8,54.1-39.5,68.4l-177,102.2l-71.5,41.3l2.3-74.4l25.2-14.6L558,413.6
			c7.1-4.1,7.9-10.9,7.9-13.6c0-2.7-0.8-9.5-7.9-13.6l-206.1-119l2.2-71.8l235.5,135.9C614.4,345.9,629.1,371.5,629.1,400z"/>
	</g>
</g>
</svg>
